:SAMPLES-PER-SECOND 30
:FULLY-SPECIFIED
:DEGREES
109
root  -31.4818 38.0806 2.03215 -0.822826 0.692237 -9.27873
RightUpLeg  -21.6497 -7.65184 8.53019
RightLeg  36.1462 -5.11602 -4.28285
RightFoot  -11.3754 -0.0772826 -2.06082
RightToes  -1.74624e-010 0 -3.6325e-017
Spine  11.4676 -4.25942 11.0395
Spine1  2.65219 -3.52141 2.98002
HEad  -14.8634 5.21646 -7.10704
LeftShoulder1  7.27127 -10.3088 -45.8851
LeftArm  5.29646 14.77 -33.3715
LeftForeArm  -178.492 -65.8468 -159.398
LeftHand  -0.244104 0.0205437 5.32207
RightShoulder  4.76083 8.0282 35.3033
RightArm  8.09049 -46.6453 20.2881
RightForeArm  140.811 70.2152 149.016
RightHand  0.197274 -9.62403 -6.51089
LeftUpLeg  -4.73005 -1.29285 4.55296
LeftLeg  65.4945 2.63456 7.04068
LeftFoot  -4.85029 0.10851 -1.37226
LeftToes  1.28235e-010 -1.10989e-010 2.53219e-011
110
root  -31.8611 37.4717 3.70583 -1.97662 1.54436 -10.2529
RightUpLeg  -20.4376 -8.08278 9.78478
RightLeg  42.3849 -5.99985 -6.12011
RightFoot  -17.2168 -0.208046 -1.99623
RightToes  -1.74624e-010 0 -3.6325e-017
Spine  12.4153 -3.99462 12.4293
Spine1  3.21971 -3.04012 3.34298
HEad  -16.0307 4.17887 -7.14989
LeftShoulder1  7.68276 -10.4848 -47.9113
LeftArm  2.70157 18.0074 -31.755
LeftForeArm  -179.601 -68.047 -157.096
LeftHand  -0.244104 0.0205437 5.32207
RightShoulder  5.37048 8.37238 39.1272
RightArm  7.89401 -34.9306 17.8253
RightForeArm  131.027 72.4847 143.39
RightHand  0.336768 -10.0454 -9.39347
LeftUpLeg  -10.819 -2.51378 6.74185
LeftLeg  72.7023 2.88539 11.1987
LeftFoot  -6.72433 -0.0118979 1.25971
LeftToes  1.28235e-010 -1.10989e-010 2.53219e-011
111
root  -32.2004 37.3332 5.47565 -2.59794 1.45979 -9.99108
RightUpLeg  -16.8919 -8.28191 9.63595
RightLeg  43.5307 -5.95032 -6.34253
RightFoot  -21.7156 -0.199851 -0.540952
RightToes  -1.74624e-010 0 -3.6325e-017
Spine  12.3478 -2.99264 13.34
Spine1  4.01843 -1.61091 2.0856
HEad  -16.2543 1.9807 -6.52535
LeftShoulder1  8.20015 -11.0552 -49.1666
LeftArm  1.8517 23.4913 -28.323
LeftForeArm  178.016 -67.7386 -157.118
LeftHand  -0.244104 0.0205437 5.32207
RightShoulder  5.77007 8.83746 40.5898
RightArm  3.80669 -25.8269 21.6397
RightForeArm  131.113 73.1114 141.973
RightHand  0.338703 -9.3198 -10.8983
LeftUpLeg  -16.8829 -2.1784 7.45024
LeftLeg  74.9705 2.35323 11.1768
LeftFoot  -8.86006 0.0170803 1.53827
LeftToes  1.28235e-010 -1.10989e-010 2.53219e-011
112
root  -32.4739 37.6781 7.39731 -2.62349 0.162425 -8.22595
RightUpLeg  -11.8425 -7.48442 7.79558
RightLeg  40.5916 -5.34582 -5.19088
RightFoot  -23.06 -0.17129 -0.145554
RightToes  -1.74624e-010 0 -3.6325e-017
Spine  11.6511 -1.06511 14.2328
Spine1  4.28047 1.18897 -1.76035
HEad  -15.6739 -0.156064 -5.41883
LeftShoulder1  8.10792 -11.1043 -48.4317
LeftArm  4.14957 29.1911 -24.922
LeftForeArm  175.95 -65.6344 -159.006
LeftHand  -0.244104 0.0205437 5.32207
RightShoulder  5.86155 9.12567 40.2587
RightArm  -1.346 -20.8007 29.1099
RightForeArm  141.003 70.7794 148.065
RightHand  0.267458 -8.71696 -10.4015
LeftUpLeg  -21.8273 -0.0286196 6.09568
LeftLeg  72.1694 2.2631 8.92154
LeftFoot  -10.5236 0.0606094 0.388795
LeftToes  1.28235e-010 -1.10989e-010 2.53219e-011
113
root  -32.6824 38.44 9.41582 -2.18564 -1.35763 -5.53674
RightUpLeg  -6.14737 -6.97422 4.60121
RightLeg  35.0778 -4.4975 -3.66258
RightFoot  -22.1228 -0.168673 -0.221499
RightToes  -1.74624e-010 0 -3.6325e-017
Spine  10.7999 1.32702 14.2771
Spine1  3.8227 4.36589 -6.26311
HEad  -14.8135 -2.53753 -3.44666
LeftShoulder1  7.49391 -10.5474 -46.5066
LeftArm  7.92447 33.6347 -22.2987
LeftForeArm  175.833 -63.5371 -160.818
LeftHand  -0.244104 0.0205437 5.32207
RightShoulder  5.81803 9.11933 39.9548
RightArm  -3.55395 -17.4965 35.5954
RightForeArm  147.084 66.9582 154.365
RightHand  0.223752 -8.10325 -10.9374
LeftUpLeg  -25.2958 3.12081 3.13707
LeftLeg  64.8956 3.53457 8.7342
LeftFoot  -11.49 0.068455 -0.631876
LeftToes  1.28235e-010 -1.10989e-010 2.53219e-011
114
root  -32.8385 39.4609 11.4952 -1.03806 -2.17681 -2.96848
RightUpLeg  -0.580297 -8.38106 0.783
RightLeg  27.6634 -2.00134 -1.45612
RightFoot  -18.7168 -0.0643037 1.07553
RightToes  -1.74624e-010 0 -3.6325e-017
Spine  9.05414 3.6752 13.0569
Spine1  3.13214 6.8556 -9.35814
HEad  -12.8964 -5.49714 -1.9401
LeftShoulder1  7.01721 -10.101 -44.9316
LeftArm  10.6211 37.7299 -20.112
LeftForeArm  178.169 -62.1347 -162.107
LeftHand  -0.244104 0.0205437 5.32207
RightShoulder  5.77901 8.95433 40.2356
RightArm  -1.68214 -14.6737 38.5891
RightForeArm  148.502 64.0095 157.601
RightHand  0.123911 -6.72687 -12.2359
LeftUpLeg  -27.4764 6.44312 -0.356773
LeftLeg  53.5809 6.71759 10.0791
LeftFoot  -11.8219 0.0662475 -1.18897
LeftToes  1.28235e-010 -1.10989e-010 2.53219e-011
115
root  -32.9401 40.4391 13.5961 0.637293 -2.49135 -1.4908
RightUpLeg  4.06256 -11.2801 -2.61706
RightLeg  20.2958 2.62025 1.08881
RightFoot  -12.044 -0.0711742 4.04699
RightToes  -1.74624e-010 0 -3.6325e-017
Spine  6.33838 5.57298 11.6097
Spine1  2.6629 8.47224 -10.8117
HEad  -9.57134 -7.78893 -2.42289
LeftShoulder1  6.92435 -10.1522 -44.1325
LeftArm  11.3791 42.6563 -18.1749
LeftForeArm  -179.148 -60.8238 -163.257
LeftHand  -0.244104 0.0205437 5.32207
RightShoulder  5.80115 8.94973 40.4199
RightArm  2.24013 -12.8999 39.1173
RightForeArm  153.368 61.9926 159.807
RightHand  0.0413225 -6.32192 -9.68328
LeftUpLeg  -28.4208 9.77668 -3.34135
LeftLeg  39.139 9.16784 8.44082
LeftFoot  -10.759 0.0715816 -1.41231
LeftToes  1.28235e-010 -1.10989e-010 2.53219e-011
116
root  -32.9871 41.1053 15.6615 1.71838 -2.74886 -1.27371
RightUpLeg  7.28001 -12.9889 -4.79149
RightLeg  16.652 5.68486 2.6131
RightFoot  -4.32727 -0.485496 7.48594
RightToes  -1.74624e-010 0 -3.6325e-017
Spine  4.12666 6.65009 10.8133
Spine1  2.64069 9.26448 -11.1171
HEad  -7.20258 -8.61734 -3.22321
LeftShoulder1  6.97189 -10.3521 -43.7775
LeftArm  10.369 47.6097 -17.2995
LeftForeArm  -178.347 -59.4571 -164.198
LeftHand  -0.244104 0.0205437 5.32207
RightShoulder  5.91495 9.26596 40.1732
RightArm  6.53236 -12.002 38.7053
RightForeArm  161.685 60.1597 161.947
RightHand  0.0204414 -7.23605 -3.43307
LeftUpLeg  -27.874 12.8715 -5.2429
LeftLeg  24.4166 6.73733 3.75997
LeftFoot  -8.91489 0.0933301 -1.83269
LeftToes  1.28235e-010 -1.10989e-010 2.53219e-011
117
root  -32.9911 41.3412 17.6606 1.36747 -3.02317 -1.7893
RightUpLeg  8.93654 -13.8137 -5.67912
RightLeg  19.2724 5.72298 2.20462
RightFoot  0.298167 -0.992112 9.82209
RightToes  -1.74624e-010 0 -3.6325e-017
Spine  3.32976 6.85249 10.5694
Spine1  3.30233 9.30666 -10.6097
HEad  -7.48838 -7.79629 -2.79504
LeftShoulder1  6.96538 -10.4153 -43.526
LeftArm  7.70653 51.0098 -18.4266
LeftForeArm  -178.845 -58.6624 -164.629
LeftHand  -0.244104 0.0205437 5.32207
RightShoulder  6.08879 9.71292 39.9339
RightArm  10.7878 -11.1009 37.6677
RightForeArm  167.376 58.8799 163.302
RightHand  -0.0457276 -7.14681 0.648742
LeftUpLeg  -25.5852 12.07 -4.32451
LeftLeg  13.2886 4.06543 -0.113476
LeftFoot  -8.78038 0.121028 -3.19057
LeftToes  1.28235e-010 -1.10989e-010 2.53219e-011
118
root  -32.9589 41.1297 19.6248 -0.041737 -3.69852 -2.57162
RightUpLeg  9.12568 -10.6819 -5.27916
RightLeg  27.1485 0.499509 -0.0468361
RightFoot  1.02724 -1.1079 10.2675
RightToes  -1.74624e-010 0 -3.6325e-017
Spine  3.26564 6.66985 10.7329
Spine1  4.52852 9.07838 -9.8718
HEad  -8.59557 -6.20609 -1.96293
LeftShoulder1  6.90281 -10.4434 -43.0213
LeftArm  4.41755 52.5475 -21.0551
LeftForeArm  -178.722 -58.5758 -164.688
LeftHand  -0.244104 0.0205437 5.32207
RightShoulder  6.22304 9.99803 39.955
RightArm  14.6475 -10.4749 36.3083
RightForeArm  168.117 58.7776 163.426
RightHand  -0.0390291 -6.27869 0.442641
LeftUpLeg  -21.9684 4.41957 0.482979
LeftLeg  6.9796 9.9932 -2.62694
LeftFoot  -9.74832 0.122586 -4.20886
LeftToes  1.28235e-010 -1.10989e-010 2.53219e-011
119
root  -32.9058 40.5358 21.5866 -1.70074 -5.14999 -3.0651
RightUpLeg  7.98908 -6.47205 -4.83327
RightLeg  38.0858 -4.61431 -4.15204
RightFoot  0.259175 -0.902094 8.87468
RightToes  -1.74624e-010 0 -3.6325e-017
Spine  3.31621 6.51159 10.6612
Spine1  5.50009 8.86153 -8.98563
HEad  -8.72791 -4.53146 -1.89987
LeftShoulder1  6.7434 -10.3449 -42.2776
LeftArm  2.27556 52.613 -23.4603
LeftForeArm  -177.707 -58.6888 -164.71
LeftHand  -0.244104 0.0205437 5.32207
RightShoulder  6.24518 10.0417 39.9689
RightArm  17.5586 -11.0828 35.2123
RightForeArm  165.966 59.6037 162.715
RightHand  -0.0310967 -6.41648 -0.420571
LeftUpLeg  -19.3837 3.95995 1.51612
LeftLeg  5.90568 11.9796 -2.73139
LeftFoot  -7.39106 0.130456 -2.90506
LeftToes  1.28235e-010 -1.10989e-010 2.53219e-011
120
root  -32.8914 39.7206 23.4558 -3.44081 -6.46485 -2.21342
RightUpLeg  5.7106 -2.9644 -5.85556
RightLeg  50.0155 -6.83462 -8.97429
RightFoot  -0.368077 -0.641997 6.65153
RightToes  -1.74624e-010 0 -3.6325e-017
Spine  4.20734 5.97324 8.29822
Spine1  5.23925 8.01255 -7.20478
HEad  -8.78164 -2.81893 -2.47356
LeftShoulder1  6.40013 -9.76068 -41.8671
LeftArm  1.92237 50.6081 -24.2413
LeftForeArm  -177.023 -59.2251 -164.462
LeftHand  -0.244104 0.0205437 5.32207
RightShoulder  6.22263 9.96538 40.0584
RightArm  19.2936 -12.6453 34.5053
RightForeArm  163.47 61.4196 161.248
RightHand  -0.0395819 -7.10807 0.0542721
LeftUpLeg  -18.9241 8.88178 -0.814679
LeftLeg  10.5534 9.37563 -1.37596
LeftFoot  -0.998636 -0.122923 1.20696
LeftToes  1.28235e-010 -1.10989e-010 2.53219e-011
